# 3ds Max Wavefront OBJ Exporter v0.97b - (c)2007 guruware
# 创建的文件:10.12.2015 13:47:02

mtllib nt5.mtl

#
# object Box560
#

v  -55.2348 818.8550 732.6334
v  188.0574 818.8550 732.6334
v  188.0574 818.8550 975.3488
v  -55.2348 818.8550 975.3488
v  188.0574 830.9413 732.6334
v  -55.2348 830.9413 732.6334
v  -55.2348 830.9413 975.3488
v  188.0574 830.9413 975.3488
v  188.0574 828.9413 977.3488
v  -55.2348 828.9413 977.3488
v  -55.2348 820.8550 977.3488
v  188.0574 820.8550 977.3488
v  190.0574 828.9413 975.3488
v  190.0574 820.8550 975.3488
v  190.0574 820.8550 732.6334
v  190.0574 828.9413 732.6334
v  -57.2348 828.9413 730.6334
v  188.0574 828.9413 730.6334
v  188.0574 820.8550 730.6334
v  -57.2348 820.8550 730.6334
v  -57.2348 828.9413 975.3488
v  -57.2348 820.8550 975.3488
v  -55.4940 820.1638 977.2687
v  -55.2348 820.1350 977.2687
v  188.3166 818.9350 976.0399
v  188.0574 818.9350 976.0687
v  188.7486 818.9350 732.3742
v  188.7774 818.9350 732.6334
v  -55.9260 829.2005 977.2687
v  -55.9548 828.9413 977.2687
v  189.9774 829.2005 976.0399
v  189.9774 828.9413 976.0687
v  188.7486 829.2005 730.7134
v  188.7774 828.9413 730.7134
v  -55.9548 818.9350 731.9134
v  -55.9548 818.9350 975.3488
v  188.0574 818.9350 731.9134
v  188.7774 818.9350 975.3488
v  -55.2348 818.9350 976.0687
v  188.0574 830.8614 976.0687
v  -55.2348 830.8613 976.0687
v  188.7774 830.8613 975.3488
v  188.7774 830.8613 732.6334
v  188.0574 830.8613 731.9134
v  -55.9548 830.8613 731.9134
v  -55.9548 830.8613 975.3488
v  188.7774 820.8550 977.2687
v  188.7774 828.9413 977.2687
v  -55.9548 820.8550 977.2687
v  189.9774 820.8550 731.9134
v  189.9774 828.9413 731.9134
v  -55.9260 820.5958 977.2687
v  -56.5148 820.8550 977.0287
v  -56.4636 820.3942 977.0287
v  -56.9148 820.8550 976.6287
v  -56.8476 820.2502 976.6287
v  -57.1548 820.8550 976.0687
v  -57.0780 820.1638 976.0687
v  -57.1548 820.1350 975.3488
v  -55.8396 820.3942 977.2687
v  -56.3100 820.0358 977.0287
v  -56.6460 819.7798 976.6287
v  -56.8476 819.6262 976.0687
v  -56.9148 819.5750 975.3488
v  -55.6956 820.2502 977.2687
v  -56.0540 819.7798 977.0287
v  -56.3100 819.4438 976.6287
v  -56.4636 819.2422 976.0687
v  -56.5148 819.1750 975.3488
v  -55.6956 819.6262 977.0287
v  -55.8396 819.2422 976.6287
v  -55.9260 819.0118 976.0687
v  -55.2348 819.5750 977.0287
v  -55.2348 819.1750 976.6287
v  188.7486 818.9350 975.6079
v  189.3374 819.1750 975.3488
v  189.2862 819.1750 975.8095
v  189.6702 819.5750 975.9535
v  189.7374 819.5750 975.3488
v  189.9774 820.1350 975.3488
v  189.9006 820.1350 976.0399
v  189.9774 820.8550 976.0687
v  188.6622 818.9350 975.8095
v  189.1326 819.1750 976.1679
v  189.4686 819.5750 976.4240
v  189.6702 820.1350 976.5775
v  189.7374 820.8550 976.6287
v  188.5182 818.9350 975.9535
v  188.8766 819.1750 976.4240
v  189.1326 819.5750 976.7599
v  189.2862 820.1350 976.9615
v  189.3374 820.8550 977.0287
v  188.5182 819.1750 976.5775
v  188.6622 819.5750 976.9615
v  188.7486 820.1350 977.1919
v  188.0574 819.1750 976.6287
v  188.0574 819.5750 977.0287
v  188.0574 820.1350 977.2687
v  188.3166 818.9350 731.9422
v  188.0574 819.1750 731.3534
v  188.5182 819.1750 731.4046
v  188.0574 819.5750 730.9534
v  188.6622 819.5750 731.0206
v  188.0574 820.1350 730.7134
v  188.7486 820.1350 730.7902
v  188.7774 820.8550 730.7134
v  188.5182 818.9350 732.0286
v  188.8766 819.1750 731.5582
v  189.1326 819.5750 731.2222
v  189.2862 820.1350 731.0206
v  189.3374 820.8550 730.9534
v  188.6622 818.9350 732.1726
v  189.1326 819.1750 731.8142
v  189.4686 819.5750 731.5582
v  189.6702 820.1350 731.4046
v  189.7374 820.8550 731.3534
v  189.2862 819.1750 732.1726
v  189.6702 819.5750 732.0286
v  189.9006 820.1350 731.9422
v  189.3374 819.1750 732.6334
v  189.7374 819.5750 732.6334
v  189.9774 820.1350 732.6334
v  -55.2348 829.6613 977.2687
v  -55.4940 829.6325 977.2687
v  -55.2348 830.2213 977.0287
v  -55.6956 830.1701 977.0287
v  -55.2348 830.6213 976.6287
v  -55.8396 830.5541 976.6287
v  -55.9260 830.7845 976.0687
v  -55.6956 829.5461 977.2687
v  -56.0540 830.0165 977.0287
v  -56.3100 830.3525 976.6287
v  -56.4636 830.5541 976.0687
v  -56.5148 830.6213 975.3488
v  -55.8396 829.4021 977.2687
v  -56.3100 829.7606 977.0287
v  -56.6460 830.0165 976.6287
v  -56.8476 830.1702 976.0687
v  -56.9148 830.2214 975.3488
v  -56.4636 829.4021 977.0287
v  -56.8476 829.5461 976.6287
v  -57.0780 829.6325 976.0687
v  -57.1548 829.6613 975.3488
v  -56.5148 828.9413 977.0287
v  -56.9148 828.9413 976.6287
v  -57.1548 828.9413 976.0687
v  189.9774 829.6613 975.3488
v  189.9774 829.6325 975.6079
v  189.7374 830.2213 975.3488
v  189.7374 830.1702 975.8095
v  189.3374 830.6213 975.3488
v  189.3374 830.5541 975.9535
v  188.7774 830.7845 976.0399
v  189.9774 829.5461 975.8095
v  189.7374 830.0165 976.1679
v  189.3374 830.3526 976.4240
v  188.7774 830.5542 976.5775
v  188.0574 830.6214 976.6287
v  189.9774 829.4022 975.9535
v  189.7374 829.7606 976.4240
v  189.3374 830.0166 976.7599
v  188.7774 830.1702 976.9615
v  188.0574 830.2214 977.0287
v  189.7374 829.4022 976.5775
v  189.3374 829.5461 976.9615
v  188.7774 829.6326 977.1919
v  188.0574 829.6614 977.2687
v  189.7374 828.9413 976.6287
v  189.3374 828.9413 977.0287
v  188.0574 829.6613 730.7134
v  188.3166 829.6325 730.7134
v  188.5182 830.1701 730.9534
v  188.0574 830.2213 730.9534
v  188.0574 830.6213 731.3534
v  188.6622 830.5541 731.3534
v  188.7486 830.7845 731.9134
v  188.5182 829.5461 730.7134
v  188.8766 830.0165 730.9534
v  189.1326 830.3525 731.3534
v  189.2862 830.5541 731.9134
v  189.3374 830.6213 732.6334
v  188.6622 829.4021 730.7134
v  189.1326 829.7606 730.9534
v  189.4686 830.0165 731.3534
v  189.6702 830.1702 731.9134
v  189.7374 830.2214 732.6334
v  189.2862 829.4021 730.9534
v  189.6702 829.5461 731.3534
v  189.9006 829.6325 731.9134
v  189.9774 829.6613 732.6334
v  189.3374 828.9413 730.9534
v  189.7374 828.9413 731.3534
v  -56.5148 819.1750 731.3534
v  -56.9148 819.5750 730.9534
v  -57.1548 820.1350 730.7134
v  -56.5148 830.6213 731.3534
v  -56.9148 830.2213 730.9534
v  -57.1548 829.6613 730.7134
# 198 vertices

vn 0.0000 -1.0000 -0.0000
vn 0.0000 1.0000 -0.0000
vn 0.0000 0.0000 1.0000
vn 1.0000 0.0000 -0.0000
vn 0.0000 0.0000 -1.0000
vn -1.0000 0.0000 -0.0000
vn -0.0123 -0.1104 0.9938
vn 0.0123 -0.9938 0.1104
vn 0.1104 -0.9938 -0.0123
vn -0.1104 0.0123 0.9938
vn 0.9938 0.0123 0.1104
vn 0.1104 0.0123 -0.9938
vn -0.1104 -0.9939 -0.0000
vn 0.0000 -0.9939 -0.1104
vn 0.1104 -0.9939 -0.0000
vn 0.0000 -0.9939 0.1104
vn 0.0000 0.9939 0.1104
vn 0.1104 0.9939 -0.0000
vn 0.0000 0.9939 -0.1104
vn -0.1104 0.9939 -0.0000
vn 0.1104 0.0000 0.9939
vn -0.1104 0.0000 0.9939
vn 0.9939 0.0000 -0.1104
vn -0.1104 -0.0123 0.9938
vn -0.3936 -0.0437 0.9183
vn -0.7049 -0.0783 0.7049
vn -0.9144 -0.1016 0.3919
vn -0.9879 -0.1098 0.1098
vn -0.0991 -0.0425 0.9942
vn -0.3548 -0.1521 0.9225
vn -0.6421 -0.2752 0.7155
vn -0.8416 -0.3607 0.4019
vn -0.9133 -0.3914 0.1131
vn -0.0747 -0.0747 0.9944
vn -0.2680 -0.2680 0.9254
vn -0.4885 -0.4885 0.7230
vn -0.6452 -0.6452 0.4092
vn -0.7024 -0.7024 0.1155
vn -0.0425 -0.0991 0.9942
vn -0.1521 -0.3548 0.9225
vn -0.2752 -0.6421 0.7155
vn -0.3607 -0.8416 0.4019
vn -0.3914 -0.9133 0.1131
vn -0.0437 -0.3936 0.9183
vn -0.0783 -0.7049 0.7049
vn -0.1016 -0.9144 0.3919
vn -0.1098 -0.9879 0.1098
vn 0.1104 -0.9938 0.0123
vn 0.3935 -0.9183 0.0437
vn 0.7049 -0.7049 0.0783
vn 0.9144 -0.3919 0.1016
vn 0.9879 -0.1098 0.1098
vn 0.0991 -0.9942 0.0425
vn 0.3548 -0.9225 0.1521
vn 0.6421 -0.7155 0.2752
vn 0.8416 -0.4019 0.3607
vn 0.9133 -0.1131 0.3914
vn 0.0747 -0.9944 0.0747
vn 0.2680 -0.9254 0.2680
vn 0.4885 -0.7230 0.4885
vn 0.6452 -0.4092 0.6452
vn 0.7024 -0.1155 0.7024
vn 0.0425 -0.9942 0.0991
vn 0.1521 -0.9225 0.3548
vn 0.2752 -0.7155 0.6421
vn 0.3607 -0.4019 0.8416
vn 0.3914 -0.1131 0.9132
vn 0.0437 -0.9183 0.3935
vn 0.0783 -0.7049 0.7049
vn 0.1016 -0.3919 0.9144
vn 0.1098 -0.1098 0.9879
vn 0.0123 -0.9938 -0.1104
vn 0.0437 -0.9183 -0.3935
vn 0.0783 -0.7049 -0.7049
vn 0.1016 -0.3919 -0.9144
vn 0.1098 -0.1098 -0.9879
vn 0.0425 -0.9942 -0.0991
vn 0.1521 -0.9225 -0.3548
vn 0.2752 -0.7155 -0.6421
vn 0.3607 -0.4019 -0.8416
vn 0.3914 -0.1131 -0.9132
vn 0.0747 -0.9944 -0.0747
vn 0.2680 -0.9254 -0.2680
vn 0.4885 -0.7230 -0.4885
vn 0.6452 -0.4092 -0.6452
vn 0.7024 -0.1155 -0.7024
vn 0.0991 -0.9942 -0.0425
vn 0.3548 -0.9225 -0.1521
vn 0.6421 -0.7155 -0.2752
vn 0.8416 -0.4019 -0.3607
vn 0.9133 -0.1131 -0.3914
vn 0.3935 -0.9183 -0.0437
vn 0.7049 -0.7049 -0.0783
vn 0.9144 -0.3919 -0.1016
vn 0.9879 -0.1098 -0.1098
vn -0.0123 0.1104 0.9938
vn -0.0437 0.3936 0.9183
vn -0.0783 0.7049 0.7049
vn -0.1016 0.9144 0.3919
vn -0.1097 0.9879 0.1098
vn -0.0425 0.0991 0.9942
vn -0.1521 0.3548 0.9225
vn -0.2752 0.6421 0.7155
vn -0.3607 0.8416 0.4019
vn -0.3914 0.9133 0.1131
vn -0.0747 0.0747 0.9944
vn -0.2680 0.2680 0.9254
vn -0.4885 0.4885 0.7230
vn -0.6452 0.6452 0.4092
vn -0.7024 0.7024 0.1155
vn -0.0991 0.0425 0.9942
vn -0.3548 0.1521 0.9225
vn -0.6421 0.2752 0.7155
vn -0.8416 0.3607 0.4019
vn -0.9133 0.3914 0.1131
vn -0.3936 0.0437 0.9183
vn -0.7049 0.0783 0.7049
vn -0.9144 0.1016 0.3919
vn -0.9879 0.1098 0.1098
vn 0.9938 0.1104 0.0123
vn 0.9183 0.3935 0.0437
vn 0.7049 0.7049 0.0783
vn 0.3919 0.9144 0.1015
vn 0.1098 0.9879 0.1097
vn 0.9942 0.0991 0.0425
vn 0.9225 0.3548 0.1520
vn 0.7155 0.6421 0.2752
vn 0.4019 0.8416 0.3607
vn 0.1131 0.9133 0.3914
vn 0.9944 0.0747 0.0747
vn 0.9254 0.2680 0.2680
vn 0.7230 0.4885 0.4885
vn 0.4092 0.6452 0.6452
vn 0.1155 0.7024 0.7024
vn 0.9942 0.0425 0.0991
vn 0.9225 0.1521 0.3548
vn 0.7155 0.2752 0.6421
vn 0.4019 0.3607 0.8416
vn 0.1131 0.3914 0.9133
vn 0.9183 0.0437 0.3935
vn 0.7049 0.0783 0.7049
vn 0.3919 0.1016 0.9144
vn 0.1098 0.1098 0.9879
vn 0.0123 0.1104 -0.9938
vn 0.0437 0.3935 -0.9183
vn 0.0783 0.7049 -0.7049
vn 0.1016 0.9144 -0.3919
vn 0.1097 0.9879 -0.1098
vn 0.0425 0.0991 -0.9942
vn 0.1520 0.3548 -0.9225
vn 0.2752 0.6421 -0.7155
vn 0.3607 0.8416 -0.4019
vn 0.3914 0.9133 -0.1131
vn 0.0747 0.0747 -0.9944
vn 0.2680 0.2680 -0.9254
vn 0.4885 0.4885 -0.7230
vn 0.6452 0.6452 -0.4092
vn 0.7024 0.7024 -0.1155
vn 0.0991 0.0425 -0.9942
vn 0.3548 0.1521 -0.9225
vn 0.6421 0.2752 -0.7155
vn 0.8416 0.3607 -0.4019
vn 0.9133 0.3914 -0.1131
vn 0.3935 0.0437 -0.9183
vn 0.7049 0.0783 -0.7049
vn 0.9144 0.1016 -0.3919
vn 0.9879 0.1098 -0.1098
vn -0.3939 -0.9191 -0.0000
vn -0.7071 -0.7071 -0.0000
vn -0.9191 -0.3939 -0.0000
vn -0.9939 -0.1104 -0.0000
vn 0.0000 -0.9191 -0.3939
vn 0.0000 -0.7071 -0.7071
vn 0.0000 -0.3939 -0.9191
vn 0.0000 -0.1104 -0.9939
vn 0.3939 -0.9191 -0.0000
vn 0.7071 -0.7071 -0.0000
vn 0.9191 -0.3939 -0.0000
vn 0.9939 -0.1104 -0.0000
vn 0.0000 -0.9191 0.3939
vn 0.0000 -0.7071 0.7071
vn 0.0000 -0.3939 0.9191
vn 0.0000 -0.1104 0.9939
vn 0.0000 0.9192 0.3939
vn 0.0000 0.7071 0.7071
vn 0.0000 0.3939 0.9191
vn 0.0000 0.1104 0.9939
vn 0.3939 0.9191 -0.0000
vn 0.7071 0.7071 -0.0000
vn 0.9191 0.3939 -0.0000
vn 0.9939 0.1104 -0.0000
vn 0.0000 0.9191 -0.3939
vn 0.0000 0.7071 -0.7071
vn 0.0000 0.3939 -0.9191
vn 0.0000 0.1104 -0.9939
vn -0.3939 0.9191 -0.0000
vn -0.7071 0.7071 -0.0000
vn -0.9191 0.3939 -0.0000
vn -0.9939 0.1104 -0.0000
vn 0.3939 0.0000 0.9191
vn 0.7071 0.0000 0.7071
vn 0.9191 0.0000 0.3939
vn 0.9939 0.0000 0.1104
vn -0.3939 0.0000 0.9191
vn -0.7071 0.0000 0.7071
vn -0.9191 0.0000 0.3939
vn -0.9939 0.0000 0.1104
vn 0.9191 0.0000 -0.3939
vn 0.7071 0.0000 -0.7071
vn 0.3939 0.0000 -0.9191
vn 0.1104 0.0000 -0.9939
# 211 vertex normals

vt 0.9919 0.9919 0.0000
vt 0.0081 0.9919 0.0000
vt 0.0081 0.0081 0.0000
vt 0.9919 0.0081 0.0000
vt 0.9919 0.8345 0.0000
vt 0.0081 0.8345 0.0000
vt 0.0081 0.1655 0.0000
vt 0.9919 0.1655 0.0000
vt 1.0000 0.8345 0.0000
vt 1.0000 0.1655 0.0000
vt 0.0000 0.8345 0.0000
vt 0.0000 0.1655 0.0000
vt 0.0000 0.0000 0.0000
vt 0.0000 1.0000 0.0000
vt 0.0045 0.0338 0.0000
vt 0.0056 0.0009 0.0000
vt 0.9894 0.0023 0.0000
vt 0.9899 0.0350 0.0000
vt 0.0105 0.0023 0.0000
vt 0.9944 0.0009 0.0000
vt 0.9955 0.0338 0.0000
vt 0.0100 0.0350 0.0000
vt 0.0081 0.0331 0.0000
vt 0.0081 -0.0000 0.0000
vt 0.9919 -0.0000 0.0000
vt 0.9919 0.0331 0.0000
vt 0.9919 0.0000 0.0000
vt 0.0081 0.0000 0.0000
vt 0.9919 0.9669 0.0000
vt 0.9919 1.0000 0.0000
vt 0.0081 1.0000 0.0000
vt 0.0081 0.9669 0.0000
vt 0.9944 0.9991 0.0000
vt 0.0105 0.9977 0.0000
vt 0.0100 0.9650 0.0000
vt 0.9955 0.9662 0.0000
vt 0.9899 0.9650 0.0000
vt 0.9894 0.9977 0.0000
vt 0.0056 0.9991 0.0000
vt 0.0045 0.9662 0.0000
vt 0.2421 0.8345 0.0000
vt 0.2421 0.1655 0.0000
vt 0.1953 0.1655 0.0000
vt 0.1953 0.8345 0.0000
vt 0.7579 0.1655 0.0000
vt 0.7579 0.8345 0.0000
vt 0.8047 0.8345 0.0000
vt 0.8047 0.1655 0.0000
vt 0.0052 0.1159 0.0000
vt 0.0032 0.0997 0.0000
vt 0.0019 0.1168 0.0000
vt 0.0014 0.1672 0.0000
vt 0.0017 0.2509 0.0000
vt -0.0023 0.1607 0.0000
vt -0.0127 0.0909 0.0000
vt -0.0297 0.0416 0.0000
vt -0.0531 0.0125 0.0000
vt -0.0831 0.0039 0.0000
vt -0.0565 0.0135 0.0000
vt -0.2437 0.0362 0.0000
vt -0.5536 0.0763 0.0000
vt -0.9861 0.1336 0.0000
vt -1.0481 0.1382 0.0000
vt -1.5413 0.2083 0.0000
vt -0.8015 0.0946 0.0000
vt -0.8015 0.0775 0.0000
vt -1.0481 0.0868 0.0000
vt -1.5413 0.1227 0.0000
vt -0.0565 0.9899 0.0000
vt -0.2437 0.9775 0.0000
vt -0.5536 0.9545 0.0000
vt -0.9861 0.9212 0.0000
vt -1.5413 0.8773 0.0000
vt -1.0481 0.9132 0.0000
vt -0.8015 0.9225 0.0000
vt -0.8015 0.9054 0.0000
vt -1.0481 0.8618 0.0000
vt -1.5413 0.7917 0.0000
vt 0.0019 0.8939 0.0000
vt -0.0104 0.9398 0.0000
vt -0.0286 0.9721 0.0000
vt -0.0529 0.9909 0.0000
vt -0.0831 0.9961 0.0000
vt -0.0531 0.9875 0.0000
vt -0.0297 0.9584 0.0000
vt -0.0127 0.9091 0.0000
vt -0.0023 0.8393 0.0000
vt 0.0017 0.7491 0.0000
vt 0.9904 0.0676 0.0000
vt 0.0034 0.0667 0.0000
vt 0.9909 0.1002 0.0000
vt 0.0023 0.0996 0.0000
vt 0.0011 0.1326 0.0000
vt 0.9914 0.1328 0.0000
vt 0.9966 0.0667 0.0000
vt 0.0096 0.0676 0.0000
vt 0.9977 0.0996 0.0000
vt 0.0091 0.1002 0.0000
vt 0.9989 0.1326 0.0000
vt 0.0086 0.1328 0.0000
vt 0.9919 0.0662 0.0000
vt 0.0081 0.0662 0.0000
vt 0.9919 0.0993 0.0000
vt 0.0081 0.0993 0.0000
vt 0.9919 0.1324 0.0000
vt 0.0081 0.1324 0.0000
vt 0.0081 0.9338 0.0000
vt 0.9919 0.9338 0.0000
vt 0.0081 0.9007 0.0000
vt 0.9919 0.9007 0.0000
vt 0.0081 0.8676 0.0000
vt 0.9919 0.8676 0.0000
vt 0.0096 0.9324 0.0000
vt 0.9966 0.9333 0.0000
vt 0.0091 0.8998 0.0000
vt 0.9977 0.9004 0.0000
vt 0.9989 0.8674 0.0000
vt 0.0086 0.8672 0.0000
vt 0.0034 0.9333 0.0000
vt 0.9904 0.9324 0.0000
vt 0.0023 0.9004 0.0000
vt 0.9909 0.8998 0.0000
vt 0.0011 0.8674 0.0000
vt 0.9914 0.8672 0.0000
vt 0.1485 0.1655 0.0000
vt 0.1485 0.8345 0.0000
vt 0.1017 0.1655 0.0000
vt 0.1017 0.8345 0.0000
vt 0.0549 0.1655 0.0000
vt 0.0549 0.8345 0.0000
vt 0.8515 0.1655 0.0000
vt 0.8515 0.8345 0.0000
vt 0.8983 0.8345 0.0000
vt 0.8983 0.1655 0.0000
vt 0.9451 0.8345 0.0000
vt 0.9451 0.1655 0.0000
# 136 texture coords

g Box560
usemtl 08___Default
s 2
f 1/1/1 2/2/1 3/3/1 4/4/1 
s 4
f 5/1/2 6/2/2 7/3/2 8/4/2 
s 8
f 9/5/3 10/6/3 11/7/3 12/8/3 
s 16
f 13/6/4 14/7/4 15/8/4 16/5/4 
s 32
f 17/9/5 18/6/5 19/7/5 20/10/5 
s 64
f 21/5/6 17/11/6 20/12/6 22/8/6 
s off
f 11/7/7 23/13/7 24/13/7 
f 3/3/8 25/13/8 26/13/8 
f 2/2/9 27/14/9 28/14/9 
f 10/6/10 29/14/10 30/14/10 
f 13/6/11 31/14/11 32/14/11 
f 18/6/12 33/14/12 34/14/12 
f 35/15/13 1/16/13 4/17/13 36/18/13 
f 2/19/14 1/20/14 35/21/14 37/22/14 
f 38/23/15 3/24/15 2/25/15 28/26/15 
f 3/27/16 26/26/16 39/23/16 4/28/16 
f 40/29/17 8/30/17 7/31/17 41/32/17 
f 8/31/18 42/32/18 43/29/18 5/30/18 
f 6/33/19 5/34/19 44/35/19 45/36/19 
f 46/37/20 7/38/20 6/39/20 45/40/20 
f 9/41/21 12/42/21 47/43/21 48/44/21 
f 11/45/22 10/46/22 30/47/22 49/48/22 
f 15/42/23 50/43/23 51/44/23 16/41/23 
f 11/7/24 49/49/24 52/13/24 
f 49/49/25 53/50/25 54/13/25 52/13/25 
f 54/13/26 53/50/26 55/51/26 56/13/26 
f 56/13/27 55/51/27 57/52/27 58/13/27 
f 22/53/28 59/54/28 58/13/28 57/52/28 
f 11/7/29 52/13/29 60/13/29 
f 60/13/30 52/13/30 54/13/30 61/13/30 
f 56/13/31 62/13/31 61/13/31 54/13/31 
f 63/13/32 62/13/32 56/13/32 58/13/32 
f 59/54/33 64/55/33 63/13/33 58/13/33 
f 11/7/34 60/13/34 65/13/34 
f 65/13/35 60/13/35 61/13/35 66/13/35 
f 61/13/36 62/13/36 67/13/36 66/13/36 
f 62/13/37 63/13/37 68/13/37 67/13/37 
f 63/13/38 64/55/38 69/56/38 68/13/38 
f 11/7/39 65/13/39 23/13/39 
f 70/13/40 23/13/40 65/13/40 66/13/40 
f 70/13/41 66/13/41 67/13/41 71/13/41 
f 71/13/42 67/13/42 68/13/42 72/13/42 
f 72/13/43 68/13/43 69/56/43 36/57/43 
f 23/13/44 70/13/44 73/13/44 24/13/44 
f 70/13/45 71/13/45 74/13/45 73/13/45 
f 72/13/46 39/13/46 74/13/46 71/13/46 
f 39/13/47 72/13/47 36/57/47 4/58/47 
f 3/3/48 38/59/48 75/13/48 
f 38/59/49 76/60/49 77/13/49 75/13/49 
f 78/13/50 77/13/50 76/60/50 79/61/50 
f 78/13/51 79/61/51 80/62/51 81/13/51 
f 82/63/52 81/13/52 80/62/52 14/64/52 
f 3/3/53 75/13/53 83/13/53 
f 83/13/54 75/13/54 77/13/54 84/13/54 
f 78/13/55 85/13/55 84/13/55 77/13/55 
f 86/13/56 85/13/56 78/13/56 81/13/56 
f 86/13/57 81/13/57 82/63/57 87/65/57 
f 3/3/58 83/13/58 88/13/58 
f 89/13/59 88/13/59 83/13/59 84/13/59 
f 89/13/60 84/13/60 85/13/60 90/13/60 
f 85/13/61 86/13/61 91/13/61 90/13/61 
f 86/13/62 87/65/62 92/66/62 91/13/62 
f 3/3/63 88/13/63 25/13/63 
f 93/13/64 25/13/64 88/13/64 89/13/64 
f 93/13/65 89/13/65 90/13/65 94/13/65 
f 94/13/66 90/13/66 91/13/66 95/13/66 
f 95/13/67 91/13/67 92/66/67 47/67/67 
f 96/13/68 26/13/68 25/13/68 93/13/68 
f 93/13/69 94/13/69 97/13/69 96/13/69 
f 94/13/70 95/13/70 98/13/70 97/13/70 
f 98/13/71 95/13/71 47/67/71 12/68/71 
f 2/2/72 37/69/72 99/14/72 
f 99/14/73 37/69/73 100/70/73 101/14/73 
f 100/70/74 102/71/74 103/14/74 101/14/74 
f 102/71/75 104/72/75 105/14/75 103/14/75 
f 104/72/76 19/73/76 106/74/76 105/14/76 
f 2/2/77 99/14/77 107/14/77 
f 101/14/78 108/14/78 107/14/78 99/14/78 
f 103/14/79 109/14/79 108/14/79 101/14/79 
f 109/14/80 103/14/80 105/14/80 110/14/80 
f 105/14/81 106/74/81 111/75/81 110/14/81 
f 2/2/82 107/14/82 112/14/82 
f 108/14/83 113/14/83 112/14/83 107/14/83 
f 113/14/84 108/14/84 109/14/84 114/14/84 
f 114/14/85 109/14/85 110/14/85 115/14/85 
f 115/14/86 110/14/86 111/75/86 116/76/86 
f 2/2/87 112/14/87 27/14/87 
f 113/14/88 117/14/88 27/14/88 112/14/88 
f 117/14/89 113/14/89 114/14/89 118/14/89 
f 115/14/90 119/14/90 118/14/90 114/14/90 
f 115/14/91 116/76/91 50/77/91 119/14/91 
f 27/14/92 117/14/92 120/14/92 28/14/92 
f 120/14/93 117/14/93 118/14/93 121/14/93 
f 121/14/94 118/14/94 119/14/94 122/14/94 
f 119/14/95 50/77/95 15/78/95 122/14/95 
f 10/6/96 123/79/96 124/14/96 
f 124/14/97 123/79/97 125/80/97 126/14/97 
f 125/80/98 127/81/98 128/14/98 126/14/98 
f 127/81/99 41/82/99 129/14/99 128/14/99 
f 41/82/100 7/83/100 46/84/100 129/14/100 
f 10/6/101 124/14/101 130/14/101 
f 126/14/102 131/14/102 130/14/102 124/14/102 
f 131/14/103 126/14/103 128/14/103 132/14/103 
f 128/14/104 129/14/104 133/14/104 132/14/104 
f 134/85/105 133/14/105 129/14/105 46/84/105 
f 10/6/106 130/14/106 135/14/106 
f 130/14/107 131/14/107 136/14/107 135/14/107 
f 131/14/108 132/14/108 137/14/108 136/14/108 
f 132/14/109 133/14/109 138/14/109 137/14/109 
f 138/14/110 133/14/110 134/85/110 139/86/110 
f 10/6/111 135/14/111 29/14/111 
f 140/14/112 29/14/112 135/14/112 136/14/112 
f 140/14/113 136/14/113 137/14/113 141/14/113 
f 141/14/114 137/14/114 138/14/114 142/14/114 
f 139/86/115 143/87/115 142/14/115 138/14/115 
f 30/14/116 29/14/116 140/14/116 144/14/116 
f 140/14/117 141/14/117 145/14/117 144/14/117 
f 145/14/118 141/14/118 142/14/118 146/14/118 
f 146/14/119 142/14/119 143/87/119 21/88/119 
f 13/6/120 147/79/120 148/14/120 
f 148/14/121 147/79/121 149/80/121 150/14/121 
f 149/80/122 151/81/122 152/14/122 150/14/122 
f 151/81/123 42/82/123 153/14/123 152/14/123 
f 42/82/124 8/83/124 40/84/124 153/14/124 
f 13/6/125 148/14/125 154/14/125 
f 150/14/126 155/14/126 154/14/126 148/14/126 
f 155/14/127 150/14/127 152/14/127 156/14/127 
f 156/14/128 152/14/128 153/14/128 157/14/128 
f 153/14/129 40/84/129 158/85/129 157/14/129 
f 13/6/130 154/14/130 159/14/130 
f 160/14/131 159/14/131 154/14/131 155/14/131 
f 161/14/132 160/14/132 155/14/132 156/14/132 
f 162/14/133 161/14/133 156/14/133 157/14/133 
f 163/86/134 162/14/134 157/14/134 158/85/134 
f 13/6/135 159/14/135 31/14/135 
f 159/14/136 160/14/136 164/14/136 31/14/136 
f 165/14/137 164/14/137 160/14/137 161/14/137 
f 162/14/138 166/14/138 165/14/138 161/14/138 
f 166/14/139 162/14/139 163/86/139 167/87/139 
f 164/14/140 168/14/140 32/14/140 31/14/140 
f 168/14/141 164/14/141 165/14/141 169/14/141 
f 165/14/142 166/14/142 48/14/142 169/14/142 
f 9/88/143 48/14/143 166/14/143 167/87/143 
f 18/6/144 170/79/144 171/14/144 
f 172/14/145 171/14/145 170/79/145 173/80/145 
f 173/80/146 174/81/146 175/14/146 172/14/146 
f 176/14/147 175/14/147 174/81/147 44/82/147 
f 44/82/148 5/83/148 43/84/148 176/14/148 
f 18/6/149 171/14/149 177/14/149 
f 178/14/150 177/14/150 171/14/150 172/14/150 
f 172/14/151 175/14/151 179/14/151 178/14/151 
f 179/14/152 175/14/152 176/14/152 180/14/152 
f 43/84/153 181/85/153 180/14/153 176/14/153 
f 18/6/154 177/14/154 182/14/154 
f 183/14/155 182/14/155 177/14/155 178/14/155 
f 179/14/156 184/14/156 183/14/156 178/14/156 
f 179/14/157 180/14/157 185/14/157 184/14/157 
f 186/86/158 185/14/158 180/14/158 181/85/158 
f 18/6/159 182/14/159 33/14/159 
f 182/14/160 183/14/160 187/14/160 33/14/160 
f 184/14/161 188/14/161 187/14/161 183/14/161 
f 184/14/162 185/14/162 189/14/162 188/14/162 
f 185/14/163 186/86/163 190/87/163 189/14/163 
f 187/14/164 191/14/164 34/14/164 33/14/164 
f 187/14/165 188/14/165 192/14/165 191/14/165 
f 192/14/166 188/14/166 189/14/166 51/14/166 
f 189/14/167 190/87/167 16/88/167 51/14/167 
f 36/18/168 69/89/168 193/90/168 35/15/168 
f 64/91/169 194/92/169 193/90/169 69/89/169 
f 195/93/170 194/92/170 64/91/170 59/94/170 
f 20/12/171 195/93/171 59/94/171 22/8/171 
f 35/21/172 193/95/172 100/96/172 37/22/172 
f 100/96/173 193/95/173 194/97/173 102/98/173 
f 102/98/174 194/97/174 195/99/174 104/100/174 
f 104/100/175 195/99/175 20/10/175 19/7/175 
f 28/26/176 120/101/176 76/102/176 38/23/176 
f 120/101/177 121/103/177 79/104/177 76/102/177 
f 121/103/178 122/105/178 80/106/178 79/104/178 
f 80/106/179 122/105/179 15/8/179 14/7/179 
f 74/102/180 39/23/180 26/26/180 96/101/180 
f 73/104/181 74/102/181 96/101/181 97/103/181 
f 24/106/182 73/104/182 97/103/182 98/105/182 
f 12/8/183 11/7/183 24/106/183 98/105/183 
f 41/32/184 127/107/184 158/108/184 40/29/184 
f 125/109/185 163/110/185 158/108/185 127/107/185 
f 125/109/186 123/111/186 167/112/186 163/110/186 
f 10/6/187 9/5/187 167/112/187 123/111/187 
f 151/107/188 181/108/188 43/29/188 42/32/188 
f 186/110/189 181/108/189 151/107/189 149/109/189 
f 190/112/190 186/110/190 149/109/190 147/111/190 
f 13/6/191 16/5/191 190/112/191 147/111/191 
f 44/35/192 174/113/192 196/114/192 45/36/192 
f 174/113/193 173/115/193 197/116/193 196/114/193 
f 198/117/194 197/116/194 173/115/194 170/118/194 
f 198/117/195 170/118/195 18/6/195 17/9/195 
f 196/119/196 134/120/196 46/37/196 45/40/196 
f 197/121/197 139/122/197 134/120/197 196/119/197 
f 139/122/198 197/121/198 198/123/198 143/124/198 
f 21/5/199 143/124/199 198/123/199 17/11/199 
f 47/43/200 92/125/200 169/126/200 48/44/200 
f 87/127/201 168/128/201 169/126/201 92/125/201 
f 82/129/202 32/130/202 168/128/202 87/127/202 
f 13/6/203 32/130/203 82/129/203 14/7/203 
f 53/131/204 49/48/204 30/47/204 144/132/204 
f 53/131/205 144/132/205 145/133/205 55/134/205 
f 55/134/206 145/133/206 146/135/206 57/136/206 
f 57/136/207 146/135/207 21/5/207 22/8/207 
f 51/44/208 50/43/208 116/125/208 192/126/208 
f 111/127/209 191/128/209 192/126/209 116/125/209 
f 111/127/210 106/129/210 34/130/210 191/128/210 
f 106/129/211 19/7/211 18/6/211 34/130/211 
# 181 polygons - 30 triangles

